# xmcd
#
# Track frame offsets: 
#        150
#        17269
#        38009
#        50849
#        67923
#        79079
#        93144
#        116753
#        133542
#        151164
#        167502
#
# Disc length: 2431 seconds
#
# Revision: 0
# Processed by: cddbd v1.5.2PL0 Copyright (c) Steve Scherf et al.
# Submitted via: ExactAudioCopyFreeDBPlugin 1.0
#
DISCID=79097d0b
DTITLE=The Two Tracks - Postcard Town
DYEAR=2017
DGENRE=Country
TTITLE0=Eyes on the Road
TTITLE1=Lost in This Canyon
TTITLE2=Rain Day
TTITLE3=Four Wheels
TTITLE4=Sow 'em on the Mountain
TTITLE5=Postcard Town
TTITLE6=Old Coyote Moon
TTITLE7=Catching You
TTITLE8=Baja
TTITLE9=Dragonfly
TTITLE10=Back to Memphis
EXTD=
EXTT0=
EXTT1=
EXTT2=
EXTT3=
EXTT4=
EXTT5=
EXTT6=
EXTT7=
EXTT8=
EXTT9=
EXTT10=
PLAYORDER=
